{"title":"Pirates of the Caribbean:At Worlds End(2006)MPEG-4[DaScubaDude]","uid":14050204,"size":1686951746,"categoryP":"video","categoryS":"movies","magnet":"?xt=urn:btih:aaf35f8c05b731dadb4d8a3d87f107deb49651cd&amp;dn=Pirates+of+the+Caribbean%3AAt+Worlds+End%282006%29MPEG-4%5BDaScubaDude%5D&amp;tr=udp%3A%2F%2Ftracker.leechers-paradise.org%3A6969&amp;tr=udp%3A%2F%2Fzer0day.ch%3A1337&amp;tr=udp%3A%2F%2Fopen.demonii.com%3A1337&amp;tr=udp%3A%2F%2Ftracker.coppersurfer.tk%3A6969&amp;tr=udp%3A%2F%2Fexodus.desync.com%3A6969","seeders":0,"leechers":0,"uploader":"dascuba","files":1,"time":1459051006,"description":"Pirates of the Caribbean: At World's End (2007)\r\nPG-13 | 2h 49min | Action, Adventure, Fantasy | 25 May 2007 (USA)\r\nCaptain Barbossa, Will Turner and Elizabeth Swann must sail off the edge of the map, navigate treachery and betrayal, and make their final alliances for one last decisive battle.\r\nDirector: Gore Verbinski\r\nWriters: Ted Elliott, Terry Rossio | 4 more credits »\r\nStars: Johnny Depp, Orlando Bloom, Keira Knightley \r\n\r\nGeneral\r\nComplete name                            : At Worlds Endpi30nnw1_Title4.mp4\r\nFormat                                   : MPEG-4\r\nFormat profile                           : Base Media\r\nCodec ID                                 : isom\r\nFile size                                : 1.57 GiB\r\nDuration                                 : 2h 48mn\r\nOverall bit rate mode                    : Variable\r\nOverall bit rate                         : 1 335 Kbps\r\nMovie name                               : pi30nnw1\r\nGenre                                    : Adventure\r\nWriting application                      : Lavf54.6.100\r\n\r\nVideo\r\nID                                       : 1\r\nFormat                                   : AVC\r\nFormat/Info                              : Advanced Video Codec\r\nFormat profile                           :   \r\nFormat settings, CABAC                   : No\r\nFormat settings, ReFrames                : 6 frames\r\nCodec ID                                 : avc1\r\nCodec ID/Info                            : Advanced Video Coding\r\nDuration                                 : 2h 48mn\r\nSource duration                          : 2h 48mn\r\nBit rate                                 : 1 201 Kbps\r\nWidth                                    : 720 pixels\r\nHeight                                   : 404 pixels\r\nDisplay aspect ratio                     : 16:9\r\nFrame rate mode                          : Constant\r\nFrame rate                               : 29.970 fps\r\nColor space                              : YUV\r\nChroma subsampling                       : 4:2:0\r\nBit depth                                : 8 bits\r\nScan type                                : Progressive\r\nBits/(Pixel*Frame)                       : 0.138\r\nStream size                              : 1.41 GiB (90%)\r\nSource stream size                       : 1.41 GiB (90%)\r\n\r\nAudio\r\nID                                       : 2\r\nFormat                                   : AAC\r\nFormat/Info                              : Advanced Audio Codec\r\nFormat profile                           : LC\r\nCodec ID                                 : 40\r\nDuration                                 : 2h 48mn\r\nBit rate mode                            : Variable\r\nBit rate                                 : 128 Kbps\r\nMaximum bit rate                         : 143 Kbps\r\nChannel(s)                               : 2 channels\r\nChannel positions                        : Front: L R\r\nSampling rate                            : 44.1 KHz\r\nCompression mode                         : Lossy\r\nStream size                              : 154 MiB (10%)","torrent":{"xt":"urn:btih:aaf35f8c05b731dadb4d8a3d87f107deb49651cd","amp;dn":"Pirates+of+the+Caribbean%3AAt+Worlds+End%282006%29MPEG-4%5BDaScubaDude%5D","amp;tr":["udp%3A%2F%2Ftracker.leechers-paradise.org%3A6969","udp%3A%2F%2Fzer0day.ch%3A1337","udp%3A%2F%2Fopen.demonii.com%3A1337","udp%3A%2F%2Ftracker.coppersurfer.tk%3A6969","udp%3A%2F%2Fexodus.desync.com%3A6969"],"infoHash":"aaf35f8c05b731dadb4d8a3d87f107deb49651cd","infoHashBuffer":{"type":"Buffer","data":[170,243,95,140,5,183,49,218,219,77,138,61,135,241,7,222,180,150,81,205]},"announce":[],"urlList":[]}}